<svg width="100" height="100" viewBox="0 0 100 100" fill="none" xmlns="http://www.w3.org/2000/svg">
<g clip-path="url(#clip0_24_28)">
<rect width="100" height="100" fill="url(#paint0_radial_24_28)"/>
<path d="M50 42V58M58 50L42 50" stroke="white" stroke-width="2" stroke-linecap="round"/>
<g filter="url(#filter0_d_24_28)">
<path d="M77.27 79.28C76.99 78.92 76.64 78.19 76.03 77.28C75.68 76.78 74.82 75.83 74.56 75.34C74.3726 75.0422 74.3182 74.6797 74.41 74.34C74.567 73.6942 75.1796 73.2658 75.84 73.34C76.3508 73.4426 76.8202 73.693 77.19 74.06C77.4482 74.3032 77.6857 74.5674 77.9 74.85C78.06 75.05 78.1 75.13 78.28 75.36C78.46 75.59 78.58 75.82 78.49 75.48C78.42 74.98 78.3 74.14 78.13 73.39C78 72.82 77.97 72.73 77.85 72.3C77.73 71.87 77.66 71.51 77.53 71.02C77.4112 70.5386 77.3177 70.0512 77.25 69.56C77.1239 68.9317 77.2156 68.2792 77.51 67.71C77.8594 67.3814 78.3719 67.2946 78.81 67.49C79.2506 67.8153 79.5791 68.2697 79.75 68.79C80.0121 69.4304 80.187 70.1031 80.27 70.79C80.43 71.79 80.74 73.25 80.75 73.55C80.75 73.18 80.68 72.4 80.75 72.05C80.8193 71.6851 81.073 71.3823 81.42 71.25C81.7178 71.1586 82.0328 71.1381 82.34 71.19C82.65 71.2548 82.9247 71.4331 83.11 71.69C83.3417 72.2734 83.4703 72.8926 83.49 73.52C83.5168 72.9706 83.6108 72.4265 83.77 71.9C83.9371 71.6646 84.1811 71.4948 84.46 71.42C84.7906 71.3596 85.1294 71.3596 85.46 71.42C85.7311 71.5106 85.9682 71.6815 86.14 71.91C86.3518 72.4403 86.48 73.0003 86.52 73.57C86.52 73.71 86.59 73.18 86.81 72.83C86.9243 72.4906 87.211 72.238 87.5621 72.1673C87.9132 72.0966 88.2754 72.2186 88.5121 72.4873C88.7489 72.756 88.8243 73.1306 88.71 73.47C88.71 74.12 88.71 74.09 88.71 74.53C88.71 74.97 88.71 75.36 88.71 75.73C88.6736 76.3152 88.5933 76.8968 88.47 77.47C88.296 77.9771 88.0537 78.4582 87.75 78.9C87.2644 79.44 86.8632 80.0502 86.56 80.71C86.4848 81.0378 86.4512 81.3738 86.46 81.71C86.459 82.0206 86.4993 82.33 86.58 82.63C86.1711 82.6732 85.7589 82.6732 85.35 82.63C84.96 82.57 84.48 81.79 84.35 81.55C84.2857 81.4211 84.154 81.3397 84.01 81.3397C83.866 81.3397 83.7343 81.4211 83.67 81.55C83.45 81.93 82.96 82.62 82.62 82.66C81.95 82.74 80.57 82.66 79.48 82.66C79.48 82.66 79.66 81.66 79.25 81.3C78.84 80.94 78.42 80.52 78.11 80.24L77.27 79.28Z" fill="white"/>
<path fill-rule="evenodd" clip-rule="evenodd" d="M77.27 79.28C76.99 78.92 76.64 78.19 76.03 77.28C75.68 76.78 74.82 75.83 74.56 75.34C74.3726 75.0422 74.3182 74.6797 74.41 74.34C74.567 73.6942 75.1796 73.2658 75.84 73.34C76.3508 73.4426 76.8202 73.693 77.19 74.06C77.4482 74.3032 77.6857 74.5674 77.9 74.85C78.06 75.05 78.1 75.13 78.28 75.36C78.46 75.59 78.58 75.82 78.49 75.48C78.42 74.98 78.3 74.14 78.13 73.39C78 72.82 77.97 72.73 77.85 72.3C77.73 71.87 77.66 71.51 77.53 71.02C77.4112 70.5386 77.3177 70.0512 77.25 69.56C77.1239 68.9317 77.2156 68.2792 77.51 67.71C77.8594 67.3814 78.3719 67.2946 78.81 67.49C79.2506 67.8153 79.5791 68.2697 79.75 68.79C80.0121 69.4304 80.187 70.1031 80.27 70.79C80.43 71.79 80.74 73.25 80.75 73.55C80.75 73.18 80.68 72.4 80.75 72.05C80.8193 71.6851 81.073 71.3823 81.42 71.25C81.7178 71.1586 82.0328 71.1381 82.34 71.19C82.65 71.2548 82.9247 71.4331 83.11 71.69C83.3417 72.2734 83.4703 72.8926 83.49 73.52C83.5168 72.9706 83.6108 72.4265 83.77 71.9C83.9371 71.6646 84.1811 71.4948 84.46 71.42C84.7906 71.3596 85.1294 71.3596 85.46 71.42C85.7311 71.5106 85.9682 71.6815 86.14 71.91C86.3518 72.4403 86.48 73.0003 86.52 73.57C86.52 73.71 86.59 73.18 86.81 72.83C86.9243 72.4906 87.211 72.238 87.5621 72.1673C87.9132 72.0966 88.2754 72.2186 88.5121 72.4873C88.7489 72.756 88.8243 73.1306 88.71 73.47C88.71 74.12 88.71 74.09 88.71 74.53C88.71 74.97 88.71 75.36 88.71 75.73C88.6736 76.3152 88.5933 76.8968 88.47 77.47C88.296 77.9771 88.0537 78.4582 87.75 78.9C87.2644 79.44 86.8632 80.0502 86.56 80.71C86.4848 81.0378 86.4512 81.3738 86.46 81.71C86.459 82.0206 86.4993 82.33 86.58 82.63C86.1711 82.6732 85.7589 82.6732 85.35 82.63C84.96 82.57 84.48 81.79 84.35 81.55C84.2857 81.4211 84.154 81.3397 84.01 81.3397C83.866 81.3397 83.7343 81.4211 83.67 81.55C83.45 81.93 82.96 82.62 82.62 82.66C81.95 82.74 80.57 82.66 79.48 82.66C79.48 82.66 79.66 81.66 79.25 81.3C78.84 80.94 78.42 80.52 78.11 80.24L77.27 79.28Z" stroke="black" stroke-width="0.75" stroke-linecap="round" stroke-linejoin="round"/>
<path d="M85.75 79.8259V76.3741C85.75 76.1675 85.5821 76 85.375 76C85.1679 76 85 76.1675 85 76.3741V79.8259C85 80.0325 85.1679 80.2 85.375 80.2C85.5821 80.2 85.75 80.0325 85.75 79.8259Z" fill="black"/>
<path d="M83.77 79.8246L83.75 76.3711C83.7488 76.1649 83.5799 75.9988 83.3728 76C83.1657 76.0012 82.9988 76.1693 83 76.3754L83.02 79.8289C83.0212 80.035 83.1901 80.2012 83.3972 80.2C83.6043 80.1988 83.7712 80.0307 83.77 79.8246Z" fill="black"/>
<path d="M81 76.379L81.02 79.8254C81.0212 80.0335 81.1901 80.2012 81.3972 80.2C81.6043 80.1988 81.7712 80.0291 81.77 79.821L81.75 76.3746C81.7488 76.1665 81.5799 75.9988 81.3728 76C81.1657 76.0012 80.9988 76.1709 81 76.379Z" fill="black"/>
</g>
</g>
<defs>
<filter id="filter0_d_24_28" x="73.1913" y="67.0118" width="16.7461" height="17.8588" filterUnits="userSpaceOnUse" color-interpolation-filters="sRGB">
<feFlood flood-opacity="0" result="BackgroundImageFix"/>
<feColorMatrix in="SourceAlpha" type="matrix" values="0 0 0 0 0 0 0 0 0 0 0 0 0 0 0 0 0 0 127 0" result="hardAlpha"/>
<feOffset dy="1"/>
<feGaussianBlur stdDeviation="0.4"/>
<feColorMatrix type="matrix" values="0 0 0 0 0 0 0 0 0 0 0 0 0 0 0 0 0 0 0.5 0"/>
<feBlend mode="normal" in2="BackgroundImageFix" result="effect1_dropShadow_24_28"/>
<feBlend mode="normal" in="SourceGraphic" in2="effect1_dropShadow_24_28" result="shape"/>
</filter>
<radialGradient id="paint0_radial_24_28" cx="0" cy="0" r="1" gradientUnits="userSpaceOnUse" gradientTransform="translate(50) rotate(90) scale(100 116.812)">
<stop stop-color="white" stop-opacity="0.05"/>
<stop offset="1" stop-color="#006AFF"/>
</radialGradient>
<clipPath id="clip0_24_28">
<rect width="100" height="100" rx="50" fill="white"/>
</clipPath>
</defs>
</svg>
