<svg width="24" height="25" viewBox="0 0 24 25" fill="none" xmlns="http://www.w3.org/2000/svg">
<rect y="0.5" width="24" height="24" rx="12" fill="white"/>
<path fill-rule="evenodd" clip-rule="evenodd" d="M15.604 11.17C16.228 11.9878 16.604 13.0268 16.604 14.1534C16.604 15.28 16.22 16.3482 15.576 17.1744L15.52 17.2453L15.504 17.1535C15.492 17.0784 15.476 16.9992 15.46 16.9199C15.14 15.4469 14.092 14.1826 12.364 13.1561C11.2 12.4677 10.532 11.6373 10.356 10.6943C10.244 10.0851 10.328 9.4717 10.488 8.94595C10.652 8.4202 10.892 7.98207 11.096 7.71919L11.768 6.8638C11.884 6.71359 12.108 6.71359 12.224 6.8638L15.604 11.17ZM16.664 10.3146L12.168 4.58137C12.084 4.47288 11.92 4.47288 11.836 4.58137L7.336 10.3146L7.32 10.3354C6.496 11.4078 6 12.7681 6 14.2494C6 17.7002 8.688 20.5 12 20.5C15.312 20.5 18 17.7002 18 14.2494C18 12.7681 17.504 11.4078 16.676 10.3354L16.664 10.3146ZM8.412 11.1533L8.812 10.64L8.824 10.736C8.832 10.8111 8.844 10.8862 8.86 10.9613C9.12 12.3842 10.052 13.5734 11.604 14.4914C12.956 15.2925 13.74 16.2147 13.968 17.2286C14.064 17.6501 14.08 18.0673 14.04 18.4304L14.036 18.4512L14.016 18.4596C13.408 18.7684 12.72 18.9436 11.996 18.9436C9.456 18.9436 7.396 16.7989 7.396 14.1534C7.396 13.0184 7.776 11.9711 8.412 11.1533Z" fill="#4DA2FF"/>
</svg>
